# xmcd
#
# Track frame offsets:
#       150
#       26455
#       52632
#       83057
#       107517
#       141337
#       162672
#       182852
#       202597
#       222870
#
# Disc length: 3413 seconds
#
# Revision: 0
# Processed by: cddbd v1.5.1PL0 Copyright (c) Steve Scherf et al.
# Submitted via: CD-DA_X-Tractor v0.24
#
DISCID=7c0d530a
DTITLE=藤本恭子 - しあわせの彩色
DYEAR=1992
DGENRE=Japanese Pop
TTITLE0=ローズティをもう一杯
TTITLE1=冬の詩
TTITLE2=うれしい時も かなしい時も
TTITLE3=春
TTITLE4=透明な夢
TTITLE5=せせらぎ
TTITLE6=フリュギアの丘
TTITLE7=美術館行きバスに乗って
TTITLE8=香る花
TTITLE9=私の中の宇宙
EXTD=
EXTT0=
EXTT1=
EXTT2=
EXTT3=
EXTT4=
EXTT5=
EXTT6=
EXTT7=
EXTT8=
EXTT9=
PLAYORDER=
